<svg width="200" height="80" viewBox="0 0 242 152" fill="none" xmlns="http://www.w3.org/2000/svg">
    <path d="M11.392 32.144C13.696 32.144 15.488 33.168 16.768 35.216C33.2373 62.5227 48.384 88.5067 62.208 113.168V34.96C62.208 34.2773 62.4213 33.68 62.848 33.168C63.36 32.656 64 32.4 64.768 32.4H66.048C66.816 32.4 67.4133 32.656 67.84 33.168C68.352 33.68 68.608 34.2773 68.608 34.96V117.264C68.608 118.971 68.096 120.251 67.072 121.104C66.1333 121.872 64.768 122.256 62.976 122.256C61.184 122.256 59.6907 121.317 58.496 119.44L13.056 41.488V119.44C13.056 120.123 12.8 120.72 12.288 121.232C11.776 121.744 11.1787 122 10.496 122H9.088C8.40533 122 7.808 121.744 7.296 121.232C6.86933 120.72 6.656 120.123 6.656 119.44V37.392C6.656 33.8933 8.23467 32.144 11.392 32.144ZM88.142 32.144C90.446 32.144 92.238 33.168 93.518 35.216C109.987 62.5227 125.134 88.5067 138.958 113.168V34.96C138.958 34.2773 139.171 33.68 139.598 33.168C140.11 32.656 140.75 32.4 141.518 32.4H142.798C143.566 32.4 144.163 32.656 144.59 33.168C145.102 33.68 145.358 34.2773 145.358 34.96V117.264C145.358 118.971 144.846 120.251 143.822 121.104C142.883 121.872 141.518 122.256 139.726 122.256C137.934 122.256 136.441 121.317 135.246 119.44L89.806 41.488V119.44C89.806 120.123 89.55 120.72 89.038 121.232C88.526 121.744 87.9287 122 87.246 122H85.838C85.1553 122 84.558 121.744 84.046 121.232C83.6193 120.72 83.406 120.123 83.406 119.44V37.392C83.406 33.8933 84.9847 32.144 88.142 32.144Z" fill="#2E3192" />
    <path d="M163.392 32.144C165.696 32.144 167.488 33.168 168.768 35.216C185.237 62.5227 200.384 88.5067 214.208 113.168V34.96C214.208 34.2773 214.421 33.68 214.848 33.168C215.36 32.656 216 32.4 216.768 32.4H218.048C218.816 32.4 219.413 32.656 219.84 33.168C220.352 33.68 220.608 34.2773 220.608 34.96V117.264C220.608 118.971 220.096 120.251 219.072 121.104C218.133 121.872 216.768 122.256 214.976 122.256C213.184 122.256 211.691 121.317 210.496 119.44L165.056 41.488V119.44C165.056 120.123 164.8 120.72 164.288 121.232C163.776 121.744 163.179 122 162.496 122H161.088C160.405 122 159.808 121.744 159.296 121.232C158.869 120.72 158.656 120.123 158.656 119.44V37.392C158.656 33.8933 160.235 32.144 163.392 32.144Z" fill="#5C084E" fill-opacity="0.79" />
    <path d="M42.28 133H42.5C42.62 133 42.72 133.04 42.8 133.12C42.92 133.253 42.9333 133.407 42.84 133.58L39.34 139.86L43.1 146.42C43.14 146.5 43.16 146.573 43.16 146.64C43.16 146.88 43.0267 147 42.76 147H42.54C42.3933 147 42.2933 146.96 42.24 146.88L38.8 140.86L35.76 146.46C35.52 146.86 35.2533 147.06 34.96 147.06C34.4533 147.06 34.2 146.793 34.2 146.26V133.4C34.2 133.293 34.2333 133.2 34.3 133.12C34.38 133.04 34.48 133 34.6 133H34.8C34.92 133 35.0133 133.04 35.08 133.12C35.16 133.2 35.2 133.293 35.2 133.4V145.4L39.16 138.16L42 133.12C42.0533 133.04 42.1467 133 42.28 133ZM48.5459 136.96C49.5459 136.96 50.3126 137.227 50.8459 137.76C51.3793 138.28 51.6459 139.047 51.6459 140.06V146.6C51.6459 146.867 51.5193 147 51.2659 147H51.1059C50.8393 147 50.7059 146.867 50.7059 146.6V140.28C50.7059 138.693 49.9793 137.9 48.5259 137.9C47.7659 137.9 47.1193 138.2 46.5859 138.8C46.4393 138.92 46.3126 138.98 46.2059 138.98C45.9659 138.98 45.8393 138.847 45.8259 138.58C45.8259 138.473 45.8526 138.367 45.9059 138.26C46.1859 137.873 46.5593 137.56 47.0259 137.32C47.4926 137.08 47.9993 136.96 48.5459 136.96ZM45.1659 137.02H45.3259C45.4326 137.02 45.5259 137.06 45.6059 137.14C45.6859 137.207 45.7259 137.3 45.7259 137.42V146.6C45.7259 146.72 45.6859 146.82 45.6059 146.9C45.5259 146.967 45.4326 147 45.3259 147H45.1659C45.0593 147 44.9659 146.967 44.8859 146.9C44.8059 146.82 44.7659 146.72 44.7659 146.6V137.42C44.7659 137.3 44.8059 137.207 44.8859 137.14C44.9659 137.06 45.0593 137.02 45.1659 137.02ZM54.5563 140.26C54.5563 139.207 54.8763 138.393 55.5163 137.82C56.1563 137.247 56.9896 136.96 58.0163 136.96C59.0429 136.96 59.8696 137.253 60.4963 137.84C61.1229 138.413 61.4363 139.22 61.4363 140.26V143.74C61.4363 144.78 61.1229 145.593 60.4963 146.18C59.8696 146.753 59.0429 147.04 58.0163 147.04C57.0029 147.04 56.1696 146.753 55.5163 146.18C54.8763 145.593 54.5563 144.78 54.5563 143.74V140.26ZM60.4963 140.26C60.4963 139.5 60.2629 138.92 59.7963 138.52C59.3296 138.107 58.7363 137.9 58.0163 137.9C57.2963 137.9 56.6963 138.107 56.2163 138.52C55.7363 138.92 55.4963 139.5 55.4963 140.26V143.74C55.4963 144.5 55.7363 145.087 56.2163 145.5C56.6963 145.9 57.2963 146.1 58.0163 146.1C58.7363 146.1 59.3296 145.9 59.7963 145.5C60.2629 145.087 60.4963 144.5 60.4963 143.74V140.26ZM73.8344 137H74.0144C74.1344 137 74.2277 137.047 74.2944 137.14C74.361 137.22 74.3944 137.293 74.3944 137.36C74.3944 137.413 74.3344 137.693 74.2144 138.2C74.0944 138.707 73.7877 139.98 73.2944 142.02C72.8144 144.047 72.4477 145.553 72.1944 146.54C72.0877 146.873 71.841 147.04 71.4544 147.04C71.0677 147.04 70.801 146.84 70.6544 146.44L68.8544 140.56C68.001 143.28 67.401 145.24 67.0544 146.44C66.9077 146.84 66.641 147.04 66.2544 147.04C65.8677 147.04 65.621 146.873 65.5144 146.54L63.3144 137.48C63.301 137.44 63.2944 137.393 63.2944 137.34C63.2944 137.273 63.321 137.2 63.3744 137.12C63.441 137.04 63.541 137 63.6744 137H63.8544C64.0677 137 64.1944 137.1 64.2344 137.3L66.2744 145.76L68.2344 139.42C68.3144 139.047 68.5144 138.86 68.8344 138.86C69.1677 138.86 69.3944 139.04 69.5144 139.4C69.941 140.88 70.581 143 71.4344 145.76L73.4944 137.3C73.5477 137.1 73.661 137 73.8344 137ZM76.7336 132.4H76.8936C77.1469 132.4 77.2736 132.527 77.2736 132.78V143.92C77.2736 145.347 77.8803 146.06 79.0936 146.06H79.4136C79.5203 146.06 79.6069 146.1 79.6736 146.18C79.7536 146.26 79.7936 146.347 79.7936 146.44V146.6C79.7936 146.867 79.5536 147 79.0736 147C78.1669 147 77.4803 146.74 77.0136 146.22C76.5469 145.7 76.3203 144.94 76.3336 143.94V132.78C76.3336 132.527 76.4669 132.4 76.7336 132.4ZM82.2125 140.26C82.2125 139.207 82.5325 138.393 83.1725 137.82C83.8125 137.247 84.6458 136.96 85.6725 136.96C86.6992 136.96 87.5258 137.253 88.1525 137.84C88.7792 138.413 89.0925 139.22 89.0925 140.26V141.46C89.0925 142.033 88.8192 142.32 88.2725 142.32H83.9525C83.8325 142.32 83.7325 142.28 83.6525 142.2C83.5858 142.12 83.5525 142.027 83.5525 141.92V141.76C83.5525 141.653 83.5858 141.56 83.6525 141.48C83.7325 141.4 83.8325 141.36 83.9525 141.36H88.1525V140.28C88.1525 139.52 87.9192 138.94 87.4525 138.54C86.9858 138.127 86.3925 137.92 85.6725 137.92C84.9525 137.92 84.3525 138.127 83.8725 138.54C83.4058 138.94 83.1725 139.52 83.1725 140.28V143.72C83.1725 144.48 83.4058 145.067 83.8725 145.48C84.3525 145.88 84.9458 146.08 85.6525 146.08C86.3725 146.08 86.9658 145.887 87.4325 145.5C87.9125 145.1 88.1525 144.533 88.1525 143.8C88.1525 143.693 88.1858 143.6 88.2525 143.52C88.3325 143.44 88.4258 143.4 88.5325 143.4H88.6925C88.8125 143.4 88.9058 143.44 88.9725 143.52C89.0525 143.6 89.0925 143.693 89.0925 143.8C89.0792 144.827 88.7592 145.627 88.1325 146.2C87.5058 146.76 86.6858 147.04 85.6725 147.04C84.6592 147.04 83.8258 146.753 83.1725 146.18C82.5325 145.593 82.2125 144.78 82.2125 143.74V140.26ZM98.3772 132.36H98.6172C98.8572 132.36 98.9772 132.487 98.9772 132.74V143.74C98.9772 144.78 98.6572 145.593 98.0172 146.18C97.3905 146.753 96.5639 147.04 95.5372 147.04C94.5105 147.04 93.6772 146.753 93.0372 146.18C92.3972 145.607 92.0772 144.793 92.0772 143.74V140.26C92.0772 139.233 92.3972 138.433 93.0372 137.86C93.6772 137.287 94.5105 137 95.5372 137C95.9639 137 96.4172 137.08 96.8972 137.24C97.3905 137.4 97.7639 137.58 98.0172 137.78V132.74C98.0172 132.487 98.1372 132.36 98.3772 132.36ZM98.0172 138.88C97.2439 138.267 96.4572 137.96 95.6572 137.96C94.8572 137.96 94.2172 138.16 93.7372 138.56C93.2705 138.96 93.0372 139.54 93.0372 140.3V143.72C93.0372 144.493 93.2705 145.08 93.7372 145.48C94.2172 145.88 94.8172 146.08 95.5372 146.08C96.2572 146.08 96.8505 145.88 97.3172 145.48C97.7839 145.067 98.0172 144.48 98.0172 143.72V138.88ZM102.213 140.28C102.213 139.227 102.533 138.413 103.173 137.84C103.813 137.267 104.646 136.98 105.673 136.98C106.713 136.98 107.539 137.267 108.153 137.84C108.779 138.413 109.093 139.227 109.093 140.28V148.52C109.093 149.653 108.793 150.513 108.193 151.1C107.593 151.7 106.786 152 105.773 152C104.773 152 103.966 151.72 103.353 151.16C102.739 150.6 102.426 149.813 102.413 148.8C102.413 148.56 102.539 148.44 102.793 148.44H102.953C103.219 148.44 103.353 148.56 103.353 148.8C103.379 149.533 103.613 150.093 104.053 150.48C104.506 150.867 105.086 151.06 105.793 151.06C106.499 151.06 107.066 150.847 107.493 150.42C107.933 149.993 108.153 149.353 108.153 148.5V146.28C107.433 146.8 106.579 147.06 105.593 147.06C104.619 147.06 103.813 146.773 103.173 146.2C102.533 145.627 102.213 144.813 102.213 143.76V140.28ZM108.153 140.28C108.153 139.52 107.919 138.94 107.453 138.54C106.986 138.127 106.386 137.92 105.653 137.92C104.933 137.92 104.339 138.127 103.873 138.54C103.406 138.94 103.173 139.527 103.173 140.3V143.74C103.173 144.5 103.413 145.087 103.893 145.5C104.386 145.9 104.966 146.1 105.633 146.1C106.313 146.1 106.866 145.993 107.293 145.78C107.733 145.553 108.019 145.307 108.153 145.04V140.28ZM112.564 140.26C112.564 139.207 112.884 138.393 113.524 137.82C114.164 137.247 114.997 136.96 116.024 136.96C117.051 136.96 117.877 137.253 118.504 137.84C119.131 138.413 119.444 139.22 119.444 140.26V141.46C119.444 142.033 119.171 142.32 118.624 142.32H114.304C114.184 142.32 114.084 142.28 114.004 142.2C113.937 142.12 113.904 142.027 113.904 141.92V141.76C113.904 141.653 113.937 141.56 114.004 141.48C114.084 141.4 114.184 141.36 114.304 141.36H118.504V140.28C118.504 139.52 118.271 138.94 117.804 138.54C117.337 138.127 116.744 137.92 116.024 137.92C115.304 137.92 114.704 138.127 114.224 138.54C113.757 138.94 113.524 139.52 113.524 140.28V143.72C113.524 144.48 113.757 145.067 114.224 145.48C114.704 145.88 115.297 146.08 116.004 146.08C116.724 146.08 117.317 145.887 117.784 145.5C118.264 145.1 118.504 144.533 118.504 143.8C118.504 143.693 118.537 143.6 118.604 143.52C118.684 143.44 118.777 143.4 118.884 143.4H119.044C119.164 143.4 119.257 143.44 119.324 143.52C119.404 143.6 119.444 143.693 119.444 143.8C119.431 144.827 119.111 145.627 118.484 146.2C117.857 146.76 117.037 147.04 116.024 147.04C115.011 147.04 114.177 146.753 113.524 146.18C112.884 145.593 112.564 144.78 112.564 143.74V140.26ZM132.789 136.98H133.129C133.289 136.98 133.395 137.013 133.449 137.08C133.502 137.147 133.529 137.247 133.529 137.38V146.6C133.529 146.72 133.489 146.82 133.409 146.9C133.329 146.967 133.235 147 133.129 147H132.789C132.682 147 132.589 146.967 132.509 146.9C132.429 146.82 132.389 146.72 132.389 146.6V137.38C132.389 137.207 132.422 137.1 132.489 137.06C132.569 137.007 132.669 136.98 132.789 136.98ZM132.009 132.54C132.142 132.42 132.449 132.36 132.929 132.36C133.409 132.36 133.722 132.427 133.869 132.56C134.015 132.68 134.089 132.94 134.089 133.34V133.6C134.089 134.053 134.015 134.34 133.869 134.46C133.722 134.58 133.409 134.64 132.929 134.64C132.449 134.64 132.142 134.58 132.009 134.46C131.875 134.34 131.809 134.053 131.809 133.6V133.34C131.809 132.913 131.875 132.647 132.009 132.54ZM133.389 133.4C133.389 133.267 133.355 133.18 133.289 133.14C133.235 133.087 133.115 133.06 132.929 133.06C132.755 133.06 132.642 133.08 132.589 133.12C132.535 133.16 132.509 133.253 132.509 133.4V133.6C132.509 133.747 132.535 133.84 132.589 133.88C132.642 133.92 132.762 133.94 132.949 133.94C133.135 133.94 133.255 133.92 133.309 133.88C133.362 133.84 133.389 133.747 133.389 133.6V133.4ZM136.551 139.62C136.551 138.86 136.804 138.227 137.311 137.72C137.831 137.213 138.597 136.96 139.611 136.96C140.637 136.96 141.424 137.213 141.971 137.72C142.517 138.213 142.791 138.947 142.791 139.92C142.791 140.027 142.751 140.12 142.671 140.2C142.604 140.267 142.517 140.3 142.411 140.3H142.231C142.124 140.3 142.031 140.267 141.951 140.2C141.884 140.12 141.851 140.033 141.851 139.94C141.851 138.593 141.097 137.92 139.591 137.92C138.897 137.92 138.371 138.087 138.011 138.42C137.664 138.753 137.491 139.173 137.491 139.68C137.491 140.187 137.657 140.593 137.991 140.9C138.337 141.193 138.984 141.433 139.931 141.62C140.877 141.807 141.617 142.1 142.151 142.5C142.684 142.9 142.951 143.5 142.951 144.3C142.951 145.087 142.657 145.747 142.071 146.28C141.497 146.8 140.691 147.06 139.651 147.06C138.624 147.06 137.791 146.8 137.151 146.28C136.511 145.747 136.191 144.967 136.191 143.94C136.191 143.66 136.324 143.52 136.591 143.52H136.751C137.004 143.52 137.131 143.653 137.131 143.92C137.131 145.373 137.991 146.1 139.711 146.1C140.484 146.1 141.057 145.927 141.431 145.58C141.817 145.22 142.011 144.78 142.011 144.26C142.011 143.74 141.811 143.367 141.411 143.14C141.011 142.9 140.311 142.673 139.311 142.46C138.324 142.247 137.617 141.907 137.191 141.44C136.764 140.973 136.551 140.367 136.551 139.62ZM155.312 140.26C155.312 139.22 155.626 138.413 156.252 137.84C156.892 137.253 157.719 136.96 158.732 136.96C159.759 136.96 160.592 137.247 161.232 137.82C161.872 138.393 162.192 139.207 162.192 140.26V143.74C162.192 144.767 161.872 145.573 161.232 146.16C160.592 146.747 159.759 147.04 158.732 147.04C157.719 147.04 156.892 146.767 156.252 146.22V151.62C156.252 151.873 156.126 152 155.872 152H155.692C155.439 152 155.312 151.873 155.312 151.62V140.26ZM160.532 138.52C160.066 138.12 159.472 137.92 158.752 137.92C158.032 137.92 157.432 138.127 156.952 138.54C156.486 138.94 156.252 139.52 156.252 140.28V145.14C157.066 145.767 157.866 146.08 158.652 146.08C159.439 146.08 160.066 145.873 160.532 145.46C161.012 145.047 161.252 144.46 161.252 143.7V140.28C161.252 139.507 161.012 138.92 160.532 138.52ZM165.748 140.26C165.748 139.207 166.068 138.393 166.708 137.82C167.348 137.247 168.181 136.96 169.208 136.96C170.234 136.96 171.061 137.253 171.688 137.84C172.314 138.413 172.628 139.22 172.628 140.26V143.74C172.628 144.78 172.314 145.593 171.688 146.18C171.061 146.753 170.234 147.04 169.208 147.04C168.194 147.04 167.361 146.753 166.708 146.18C166.068 145.593 165.748 144.78 165.748 143.74V140.26ZM171.688 140.26C171.688 139.5 171.454 138.92 170.988 138.52C170.521 138.107 169.928 137.9 169.208 137.9C168.488 137.9 167.888 138.107 167.408 138.52C166.928 138.92 166.688 139.5 166.688 140.26V143.74C166.688 144.5 166.928 145.087 167.408 145.5C167.888 145.9 168.488 146.1 169.208 146.1C169.928 146.1 170.521 145.9 170.988 145.5C171.454 145.087 171.688 144.5 171.688 143.74V140.26ZM185.026 137H185.206C185.326 137 185.419 137.047 185.486 137.14C185.552 137.22 185.586 137.293 185.586 137.36C185.586 137.413 185.526 137.693 185.406 138.2C185.286 138.707 184.979 139.98 184.486 142.02C184.006 144.047 183.639 145.553 183.386 146.54C183.279 146.873 183.032 147.04 182.646 147.04C182.259 147.04 181.992 146.84 181.846 146.44L180.046 140.56C179.192 143.28 178.592 145.24 178.246 146.44C178.099 146.84 177.832 147.04 177.446 147.04C177.059 147.04 176.812 146.873 176.706 146.54L174.506 137.48C174.492 137.44 174.486 137.393 174.486 137.34C174.486 137.273 174.512 137.2 174.566 137.12C174.632 137.04 174.732 137 174.866 137H175.046C175.259 137 175.386 137.1 175.426 137.3L177.466 145.76L179.426 139.42C179.506 139.047 179.706 138.86 180.026 138.86C180.359 138.86 180.586 139.04 180.706 139.4C181.132 140.88 181.772 143 182.626 145.76L184.686 137.3C184.739 137.1 184.852 137 185.026 137ZM187.525 140.26C187.525 139.207 187.845 138.393 188.485 137.82C189.125 137.247 189.958 136.96 190.985 136.96C192.012 136.96 192.838 137.253 193.465 137.84C194.092 138.413 194.405 139.22 194.405 140.26V141.46C194.405 142.033 194.132 142.32 193.585 142.32H189.265C189.145 142.32 189.045 142.28 188.965 142.2C188.898 142.12 188.865 142.027 188.865 141.92V141.76C188.865 141.653 188.898 141.56 188.965 141.48C189.045 141.4 189.145 141.36 189.265 141.36H193.465V140.28C193.465 139.52 193.232 138.94 192.765 138.54C192.298 138.127 191.705 137.92 190.985 137.92C190.265 137.92 189.665 138.127 189.185 138.54C188.718 138.94 188.485 139.52 188.485 140.28V143.72C188.485 144.48 188.718 145.067 189.185 145.48C189.665 145.88 190.258 146.08 190.965 146.08C191.685 146.08 192.278 145.887 192.745 145.5C193.225 145.1 193.465 144.533 193.465 143.8C193.465 143.693 193.498 143.6 193.565 143.52C193.645 143.44 193.738 143.4 193.845 143.4H194.005C194.125 143.4 194.218 143.44 194.285 143.52C194.365 143.6 194.405 143.693 194.405 143.8C194.392 144.827 194.072 145.627 193.445 146.2C192.818 146.76 191.998 147.04 190.985 147.04C189.972 147.04 189.138 146.753 188.485 146.18C187.845 145.593 187.525 144.78 187.525 143.74V140.26ZM200.73 136.96C200.983 136.96 201.11 137.093 201.11 137.36V137.5C201.11 137.607 201.07 137.7 200.99 137.78C200.923 137.86 200.836 137.9 200.73 137.9C199.97 137.9 199.363 138.093 198.91 138.48C198.456 138.867 198.23 139.46 198.23 140.26V146.6C198.23 146.72 198.19 146.82 198.11 146.9C198.03 146.967 197.936 147 197.83 147H197.69C197.583 147 197.49 146.967 197.41 146.9C197.33 146.82 197.29 146.72 197.29 146.6V140.26C197.29 139.167 197.596 138.347 198.21 137.8C198.823 137.24 199.663 136.96 200.73 136.96Z" fill="#2E3192" fill-opacity="0.8" />
</svg>